HIERARCHY
ROOT Torso
{
	OFFSET 0.000000 0.000000 0.000000
	CHANNELS 6 Xposition Yposition Zposition Zrotation Yrotation Xrotation
	JOINT LHip
	{
		OFFSET 0.000000 0.010000 -0.060000
		CHANNELS 6 Xposition Yposition Zposition Zrotation Yrotation Xrotation
		JOINT LeftThigh
		{
			OFFSET 0.055000 0.000000 -0.055000
			CHANNELS 6 Xposition Yposition Zposition Zrotation Yrotation Xrotation
			JOINT LeftLeg
			{
				OFFSET 0.000000 -0.015000 -0.120000
				CHANNELS 6 Xposition Yposition Zposition Zrotation Yrotation Xrotation
				JOINT LeftFoot
				{
					OFFSET 0.000000 0.010000 -0.100000
					CHANNELS 6 Xposition Yposition Zposition Zrotation Yrotation Xrotation
					End Site
					{
						OFFSET 0.000000 -0.090000 -0.035000
					}
				}
			}
		}
	}
	JOINT RHip
	{
		OFFSET 0.000000 0.010000 -0.060000
		CHANNELS 6 Xposition Yposition Zposition Zrotation Yrotation Xrotation
		JOINT RightThigh
		{
			OFFSET -0.055000 0.000000 -0.055000
			CHANNELS 6 Xposition Yposition Zposition Zrotation Yrotation Xrotation
			JOINT RightLeg
			{
				OFFSET 0.000000 -0.015000 -0.120000
				CHANNELS 6 Xposition Yposition Zposition Zrotation Yrotation Xrotation
				JOINT RightFoot
				{
					OFFSET 0.000000 0.010000 -0.100000
					CHANNELS 6 Xposition Yposition Zposition Zrotation Yrotation Xrotation
					End Site
					{
						OFFSET 0.000000 -0.090000 -0.035000
					}
				}
			}
		}
	}
	JOINT Neck
	{
		OFFSET 0.000000 -0.000000 0.040000
		CHANNELS 6 Xposition Yposition Zposition Zrotation Yrotation Xrotation
		JOINT Head
		{
			OFFSET 0.000000 -0.000000 0.100000
			CHANNELS 6 Xposition Yposition Zposition Zrotation Yrotation Xrotation
			End Site
			{
				OFFSET 0.000000 -0.000000 0.070000
			}
		}
	}
	JOINT LeftUpperarm
	{
		OFFSET 0.098000 -0.000000 0.075000
		CHANNELS 6 Xposition Yposition Zposition Zrotation Yrotation Xrotation
		JOINT LeftLowerarm
		{
			OFFSET 0.000000 -0.090000 0.009000
			CHANNELS 6 Xposition Yposition Zposition Zrotation Yrotation Xrotation
			End Site
			{
				OFFSET 0.000000 -0.105000 0.000000
			}
		}
	}
	JOINT RightUpperarm
	{
		OFFSET -0.098000 -0.000000 0.075000
		CHANNELS 6 Xposition Yposition Zposition Zrotation Yrotation Xrotation
		JOINT RightLowerarm
		{
			OFFSET 0.000000 -0.090000 0.009000
			CHANNELS 6 Xposition Yposition Zposition Zrotation Yrotation Xrotation
			End Site
			{
				OFFSET 0.000000 -0.105000 0.000000
			}
		}
	}
}
MOTION
Frames: 5
Frame Time: 0.041667
0.000000 0.000000 0.000000 0.000000 -0.000000 15.945398 0.000001 0.010000 -0.059999 -31.114032 -5.747235 -0.893952 0.055000 -0.000000 -0.055001 -148.907809 -5.431598 19.344914 -0.000001 -0.015000 -0.119999 0.000032 0.000008 -12.835620 -0.000000 0.009998 -0.100000 -176.005150 25.200142 -11.935630 -0.000002 0.009998 -0.060001 34.670334 3.817250 0.180675 -0.055000 0.000000 -0.054999 145.519639 4.212246 21.061177 0.000000 -0.014998 -0.120002 -0.000022 -0.000032 -12.835617 -0.000000 0.010000 -0.100000 173.707953 -26.623485 -7.427428 0.000000 -0.000000 0.040000 0.339098 -0.592402 -27.629059 -0.000000 -0.000004 0.099998 -0.108577 0.513016 24.529900 0.098000 0.000000 0.075000 62.906759 107.793048 -20.260421 -0.000004 -0.090000 0.009002 -0.000002 0.000005 -5.710586 -0.098002 -0.000000 0.074998 -62.906807 -107.793041 -20.260383 -0.000002 -0.090000 0.008998 0.000001 0.000004 -5.710590 
0.000000 0.000000 0.000000 -1.641980 -3.783550 10.757183 0.000001 0.010000 -0.059999 -31.114029 -5.747248 -0.893955 0.055000 0.000002 -0.054998 -153.534716 -14.388569 19.091429 0.000000 -0.015002 -0.119999 0.000086 -0.000024 -36.083527 -0.000001 0.009998 -0.100001 -179.804224 25.645339 -28.787004 -0.000001 0.010000 -0.060002 34.670334 3.817253 0.180671 -0.055000 0.000000 -0.055000 139.463980 2.872852 48.968345 -0.000000 -0.014998 -0.120000 -0.000077 0.000015 -63.981326 -0.000000 0.010000 -0.100000 168.633409 -28.184658 -17.092314 0.000000 -0.000000 0.040002 -4.492205 -0.290075 -17.211018 0.000000 0.000004 0.100006 1.907448 6.229222 27.427892 0.098002 -0.000001 0.074996 -30.473637 172.848483 -80.045364 -0.000000 -0.090000 0.008998 -21.962828 5.546987 33.745987 -0.097998 -0.000000 0.075002 14.500266 -174.627870 -79.658809 0.000000 -0.090000 0.008998 18.006727 -3.273119 26.154586 
0.000000 0.000000 0.000000 -1.491888 -3.745633 10.825187 -0.000002 0.009998 -0.059999 -31.114029 -5.747246 -0.893959 0.055001 0.000004 -0.055001 -153.583661 -14.407048 18.349942 -0.000000 -0.015002 -0.120000 0.000030 0.000048 -35.371835 0.000000 0.010002 -0.099999 -179.797244 25.646131 -28.778322 0.000000 0.010000 -0.060000 34.670327 3.817258 0.180666 -0.055000 0.000002 -0.055000 139.380023 3.037744 49.017211 -0.000000 -0.014999 -0.120002 -0.000004 -0.000076 -61.712678 0.000000 0.010000 -0.100000 168.645157 -28.213249 -17.499918 0.000001 -0.000000 0.040002 -4.531257 -0.305183 -16.758305 0.000001 -0.000000 0.100000 2.095766 5.910183 26.762645 0.097998 0.000000 0.075002 -30.205531 172.607186 -79.914777 -0.000002 -0.090002 0.008996 -21.817393 5.450801 33.458897 -0.098000 -0.000000 0.075000 14.451553 -174.758832 -79.658003 -0.000000 -0.090000 0.009000 18.067816 -3.303214 26.268896 
0.000000 0.000000 0.000000 -1.238432 -4.009567 10.895015 -0.000001 0.010000 -0.059996 -31.114032 -5.747231 -0.893958 0.055002 0.000002 -0.055001 -153.745495 -14.753014 17.840775 -0.000001 -0.014998 -0.119999 0.000008 -0.000007 -35.056530 0.000001 0.010000 -0.100000 -179.926471 25.630645 -29.053579 -0.000001 0.009998 -0.059999 34.670341 3.817253 0.180665 -0.055000 0.000004 -0.055000 139.116391 2.849771 49.086988 -0.000000 -0.014998 -0.120002 0.000005 0.000023 -59.448710 -0.000000 0.010002 -0.100001 168.543824 -28.235877 -17.678031 0.000000 0.000004 0.040004 -4.739441 -0.004862 -16.556968 0.000000 -0.000002 0.099998 1.930056 5.655067 26.267314 0.098000 -0.000000 0.074998 -30.789181 172.566300 -79.717153 -0.000000 -0.090001 0.008996 -21.929034 5.524526 33.679250 -0.098000 0.000000 0.074998 13.721094 -174.636039 -79.532157 0.000000 -0.090000 0.009000 18.147978 -3.342778 26.418897 
0.000000 0.000000 0.000000 -1.211249 -3.568004 11.173294 0.000002 0.009998 -0.059998 -31.114032 -5.747239 -0.893949 0.055001 0.000002 -0.055001 -153.672795 -14.273921 17.476897 0.000000 -0.015000 -0.119999 0.000022 -0.000039 -34.510627 0.000000 0.010000 -0.100000 -179.958136 25.627122 -29.092057 0.000000 0.009996 -0.059997 34.670334 3.817251 0.180674 -0.055000 0.000002 -0.055000 139.736682 3.213083 49.265857 -0.000000 -0.014996 -0.120002 -0.000027 0.000001 -57.111559 0.000001 0.009998 -0.100000 168.783742 -28.261105 -18.398206 0.000000 -0.000002 0.040000 -4.695258 -0.379351 -17.023073 0.000000 -0.000002 0.100000 1.663165 5.572216 26.491188 0.098000 -0.000000 0.075000 -30.860772 171.909660 -79.608505 -0.000000 -0.090001 0.009000 -21.954822 5.541665 33.730285 -0.098000 0.000000 0.075000 13.402360 -175.065945 -78.929475 0.000000 -0.090001 0.008998 18.019508 -3.279465 26.178638 
